<svg width="260" height="100" viewBox="0 0 260 100" fill="none" xmlns="http://www.w3.org/2000/svg">
    <path d="M50.079 12C44.147 12.0001 31.2945 44.7792 50.0791 44.7792L50.079 12Z" fill="#0C1C25"/>
    <path d="M50.079 12C56.011 12.0001 68.8636 44.7792 50.0791 44.7792L50.079 12Z" fill="#0C1C25"/>
    <path d="M81.423 80.3587C85.3922 75.8351 70.2528 44.1009 57.6835 58.4251L81.423 80.3587Z" fill="#0C1C25"/>
    <path d="M81.423 80.3587C77.4537 84.8821 45.1142 72.7494 57.6835 58.4251L81.423 80.3587Z" fill="#0C1C25"/>
    <path d="M18.577 80.5047C14.6078 75.9811 29.7472 44.2469 42.3165 58.5712L18.577 80.5047Z" fill="#0C1C25"/>
    <path d="M18.577 80.5047C22.5463 85.0281 54.8858 72.8955 42.3165 58.5712L18.577 80.5047Z" fill="#0C1C25"/>
    <text x="99" y="58" fill="#0C1C25" font-family="ui-sans-serif, system-ui, -apple-system, sans-serif" font-size="36" font-weight="700">keystr</text>
</svg>
